<svg id="Layer_1" data-name="Layer 1" xmlns="http://www.w3.org/2000/svg" viewBox="0 0 371.28 577.54"><defs><style>.cls-1{fill:#1f1f1f;}.cls-2{fill:#f17e26;}.cls-3{fill:#c9d9d9;}.cls-4{fill:#f4df95;}.cls-5{fill:#c86916;}.cls-6{fill:#f25c41;}.cls-7{fill:#c424b4;}.cls-8{fill:#3a4040;opacity:0.5;}.cls-9{fill:#fff;fill-rule:evenodd;}</style></defs><rect class="cls-1" width="371.28" height="577.54" rx="14.21"/><rect class="cls-2" x="10.01" y="16.43" width="350.74" height="545.31"/><rect class="cls-3" x="10.28" y="96" width="350" height="466"/><rect class="cls-4" x="246.28" y="111" width="100" height="100" rx="17.4"/><rect class="cls-5" x="246.28" y="225" width="100" height="100" rx="17.4"/><rect class="cls-6" x="246.28" y="339" width="100" height="100" rx="17.4"/><rect class="cls-7" x="246.28" y="453" width="100" height="100" rx="17.4"/><rect class="cls-8" x="31.28" y="155" width="195" height="18"/><rect class="cls-8" x="31.28" y="186" width="195" height="18"/><rect class="cls-8" x="31.28" y="124" width="195" height="18"/><rect class="cls-8" x="31.28" y="266" width="195" height="18"/><rect class="cls-8" x="31.28" y="297" width="195" height="18"/><rect class="cls-8" x="31.28" y="235" width="195" height="18"/><rect class="cls-8" x="31.28" y="380" width="195" height="18"/><rect class="cls-8" x="31.28" y="411" width="195" height="18"/><rect class="cls-8" x="31.28" y="349" width="195" height="18"/><rect class="cls-8" x="31.28" y="494" width="195" height="18"/><rect class="cls-8" x="31.28" y="525" width="195" height="18"/><rect class="cls-8" x="31.28" y="463" width="195" height="18"/><path class="cls-9" d="M218,39.43v31.3a5.69,5.69,0,0,1-2.84,4.92L188,91.31a5.7,5.7,0,0,1-5.68,0l0,0-27.1-15.65a5.68,5.68,0,0,1-2.84-4.92V39.4a5.68,5.68,0,0,1,2.84-4.92L182.3,18.83a5.65,5.65,0,0,1,5.68,0l0,0h0l27.11,15.66A5.67,5.67,0,0,1,218,39.43Z" transform="translate(0.46 -0.07)"/><path class="cls-2" d="M206.76,42.4a5,5,0,0,0-5.78-4,5.46,5.46,0,0,0-2.26,1,6.63,6.63,0,0,0-11.9,2.1,5,5,0,1,0-.61,9.66,4.92,4.92,0,0,0,3.43-2.42,6.59,6.59,0,0,0,8.9-1.57,5.24,5.24,0,0,0,4.17,1.11A5,5,0,0,0,206.76,42.4Z" transform="translate(0.46 -0.07)"/><path class="cls-2" d="M178.27,36.52a6.81,6.81,0,0,0-6.74,2.79,5,5,0,1,0,.18,7.77A6.86,6.86,0,0,0,176,49.63a6.52,6.52,0,0,0,1.87,0,8.45,8.45,0,0,1-.68-2.06,8.26,8.26,0,0,1,4.8-9A6.52,6.52,0,0,0,178.27,36.52Z" transform="translate(0.46 -0.07)"/><path class="cls-2" d="M181.61,53.74a8.12,8.12,0,0,1-1.76-1.07,9.93,9.93,0,0,1-4.47.24,10.36,10.36,0,0,1-4.23-1.76,8.12,8.12,0,0,1-4.07.31l-3.28-.58a5,5,0,0,0-5.79,4l-1.15,6.56a5,5,0,0,0,4,5.78l1.64.29a3.33,3.33,0,0,0,2.7,3.86l13.22,2.31a3.32,3.32,0,0,0,3.85-2.7l1.17-6.63ZM163.12,64.28,161.49,64a1.67,1.67,0,0,1-1.35-1.93l1.15-6.56a1.67,1.67,0,0,1,1.93-1.35l1.64.29Z" transform="translate(0.46 -0.07)"/><path class="cls-2" d="M213.5,61.49l-1.15-6.56a5,5,0,0,0-5.79-4l-3.27.57h0a8.56,8.56,0,0,1-4.18-.31,9.88,9.88,0,0,1-8.59,1.52,8.25,8.25,0,0,1-3.72,1.68,8,8,0,0,1-1.45.13l-.22,0L188,71a3.32,3.32,0,0,0,3.85,2.7l13.23-2.31a3.34,3.34,0,0,0,2.7-3.86l1.63-.29A5,5,0,0,0,213.5,61.49ZM208.88,64l-1.64.29-1.74-9.83,1.64-.29a1.67,1.67,0,0,1,1.93,1.35l1.16,6.56A1.66,1.66,0,0,1,208.88,64Z" transform="translate(0.46 -0.07)"/></svg>