<svg id="Layer_1" data-name="Layer 1" xmlns="http://www.w3.org/2000/svg" viewBox="0 0 866.23 977.12"><defs><style>.cls-1{fill-rule:evenodd;}.cls-2{fill:#fff;}</style></defs><path class="cls-1" d="M933.16,293.3V706.7a75,75,0,0,1-37.5,65l-358,206.69a75,75,0,0,1-75,0l-.27-.34L104.43,771.33a75,75,0,0,1-37.5-65V293a75,75,0,0,1,37.5-65l358-206.69a75,75,0,0,1,75,0l.23.31h0l358,206.7A75,75,0,0,1,933.16,293.3Z" transform="translate(-66.93 -11.28)"/><path class="cls-2" d="M785.42,332.61a65.92,65.92,0,0,0-76.36-53.47,71,71,0,0,0-29.75,12.67,87.58,87.58,0,0,0-157.19,27.72,65,65,0,0,0-30.91-2.23,65.92,65.92,0,1,0,68.23,97.79,87,87,0,0,0,117.48-20.72A68.72,68.72,0,0,0,732,409,65.9,65.9,0,0,0,785.42,332.61Z" transform="translate(-66.93 -11.28)"/><path class="cls-2" d="M409.23,254.94c-35-6.17-70.09,9.41-89,36.87a65.21,65.21,0,0,0-28.29-12.67,65.92,65.92,0,1,0,30.67,115.23c12.92,17.08,33.35,29.67,56.1,33.68a85.46,85.46,0,0,0,24.71.39,108.56,108.56,0,0,1,54.46-146.18C445.34,268.61,428.91,258.41,409.23,254.94Z" transform="translate(-66.93 -11.28)"/><path class="cls-2" d="M453.39,482.37a108.89,108.89,0,0,1-23.25-14.24,130.07,130.07,0,0,1-59.07,3.2c-19.85-3.5-39.83-11.48-55.88-23.22a108,108,0,0,1-53.73,4.14l-43.32-7.63a65.92,65.92,0,0,0-76.36,53.47l-15.27,86.55A65.93,65.93,0,0,0,180,661l21.64,3.81a44,44,0,0,0,35.65,50.91l174.57,30.52a43.93,43.93,0,0,0,50.91-35.64l15.44-87.53ZM209.25,621.55l-21.64-3.82a22,22,0,0,1-17.82-25.45l15.26-86.56a22,22,0,0,1,25.46-17.82l21.63,3.81Z" transform="translate(-66.93 -11.28)"/><path class="cls-2" d="M874.49,584.65l-15.27-86.56a65.92,65.92,0,0,0-76.36-53.47l-43.24,7.62-.08,0a114,114,0,0,1-55.19-4.15,130.47,130.47,0,0,1-113.49,20,108.79,108.79,0,0,1-49.12,22.28,110.89,110.89,0,0,1-19.18,1.67c-1,0-1.91-.23-2.89-.26l38.58,218.79a44,44,0,0,0,50.91,35.65l174.57-30.53a44,44,0,0,0,35.65-50.91L821,661A65.92,65.92,0,0,0,874.49,584.65Zm-61.1,33.08-21.64,3.81L768.86,491.71l21.63-3.81A22,22,0,0,1,816,505.72l15.26,86.55A22,22,0,0,1,813.39,617.73Z" transform="translate(-66.93 -11.28)"/></svg>