<svg xmlns="http://www.w3.org/2000/svg" viewBox="0 0 84.51 350"><defs><style>.cls-1{fill:#00f4ff;}.cls-2{fill:#fff;}.cls-3{fill:#d13f3f;}</style></defs><g id="Layer_2" data-name="Layer 2"><polygon class="cls-1" points="41.19 323.95 41.2 323.95 41.19 323.95 41.19 323.95 41.19 323.95"/><path class="cls-2" d="M230.86,263.67l-.25-.6a2.48,2.48,0,0,0-.9-.89l-.6-.25a2.46,2.46,0,0,0-1.32,0l-.35.1c-.31.11-.61.25-.91.39a.74.74,0,0,0-.17.12,2.42,2.42,0,0,0-.46.06,7.92,7.92,0,0,0-1.11.51,2,2,0,0,0-.24.16l-.28.21-1.31.09-3.41,2.11-4.05,2.73a2,2,0,0,0-.54-.11,1.9,1.9,0,0,0-1,.05,1.88,1.88,0,0,0-.85.44,1.91,1.91,0,0,0-.64.71c-.08.19-.17.39-.25.59v0a6.73,6.73,0,0,0-1.15.46l-.29.08c-.21,0-.43.08-.64.12a12.52,12.52,0,0,0-1.34.34,17.05,17.05,0,0,0-2.05.8c-.08-.15-.15-.3-.24-.44l0-.06.67-.1.19-9v-2.59c.24-3.12,0-6.33-.07-9.48a11.08,11.08,0,0,0,.11-3c0-.1,0-.2,0-.3a4.82,4.82,0,0,0-.12-1.1,9,9,0,0,1,0-1.17,28.25,28.25,0,0,0,0-5.28q.08-3.26,0-6.52a3,3,0,0,0,.14-.42,23.36,23.36,0,0,0,.52-4.08,5.08,5.08,0,0,0,.12-1v-.65a3.72,3.72,0,0,0-.27-1.56,4.39,4.39,0,0,0,.65-2.91q-.37-4.2-.45-8.4a4.34,4.34,0,0,0,.65-2.94c-.16-1.69-.33-3.38-.49-5.07.16-2.86.44-5.7.86-8.54a5.22,5.22,0,0,0-.38-2.9l.09-.19a5,5,0,0,0-.09-4.74c0-.06-.05-.13-.08-.19a4.82,4.82,0,0,0-.17-3.13,21.39,21.39,0,0,0,.48-8.52,29.3,29.3,0,0,0-.12-6.75c.09-1.88.17-3.77.25-5.65.13-1.15.29-2.29.48-3.44,1.36-8.3,3-16.31,2.4-24.61q1.4-13.2,2.93-26.38a5.05,5.05,0,0,0-.05-1.57c2.85-7.4,2.36-14.81,1.94-22.39,0-.06,0-.13,0-.19a4.42,4.42,0,0,0,1-5.94c.09-.85.16-1.7.18-2.57a4.5,4.5,0,0,0-1.56-3.68,4.2,4.2,0,0,0-2.91-3A15.32,15.32,0,0,0,211.42,65c-1.21-2.23-4-4.72-4.33-7.32A5.53,5.53,0,0,0,204,53.09a4.81,4.81,0,0,0-.65-2.92l-1.62-2.43a5.09,5.09,0,0,0-1.68-3.61,4.27,4.27,0,0,0-.86-3.74,4.79,4.79,0,0,0-4.37-1.87h-.23c-3-.19-6.18,2-5.42,5.61a5,5,0,0,0-1.68,3.61l-1.62,2.43a4.81,4.81,0,0,0-.65,2.92,5.53,5.53,0,0,0-3,4.61c-.31,2.6-3.12,5.09-4.33,7.32A15.17,15.17,0,0,0,176,71.36a4.2,4.2,0,0,0-2.91,3,4.5,4.5,0,0,0-1.56,3.68,43.45,43.45,0,0,0,1.24,8.7c-.42,7.58-.91,15,1.94,22.39a5.05,5.05,0,0,0,0,1.57q1.53,13.19,2.93,26.38c-.59,8.3,1,16.31,2.4,24.61a71.28,71.28,0,0,1,.87,7.92,31.66,31.66,0,0,0-.26,7.9,21.32,21.32,0,0,0,.48,8.54,4.5,4.5,0,0,0,.35,4.2c.11.16.21.32.31.48a5.63,5.63,0,0,0-.3,2.51,5.11,5.11,0,0,0-1,4A105.18,105.18,0,0,1,181,222.2a4.19,4.19,0,0,0,1.29,3.64,6.59,6.59,0,0,0-.08,1c.05,3.72.1,7.45.19,11.18-.61,2.26-.34,4.32-.23,6.61a14.75,14.75,0,0,1-.19,2.57,13.22,13.22,0,0,0,.29,4.06c0,.05,0,.09,0,.14,0,.94,0,1.87.07,2.8,0,.22-.07.44-.09.67,0,0,0,.09,0,.14a12,12,0,0,0,.1,2.47,5,5,0,0,0-.09.66l0,.2c0,.05,0,.11,0,.16v.17a4,4,0,0,1,0,.91.09.09,0,0,0,0,0v.05a3.54,3.54,0,0,0,.07.47l0,.21,0,.27c0,.11,0,.21,0,.32s0,.16,0,.25a4.56,4.56,0,0,1,0,.64c0,.06,0,.12,0,.19v0l.43,9.43.56-.54a1,1,0,0,1,0,.17l0,.22-.12.44-.17.62a4.08,4.08,0,0,0-1.64-.38,8.24,8.24,0,0,0-.65-.77,3,3,0,0,0-2.88-.79,3.28,3.28,0,0,0-.31-.2c-.36-.19-.72-.38-1.09-.56a2.88,2.88,0,0,0-1.43-1.11l-.23-.08-.55-.27c-.4-.21-.78-.44-1.16-.67l-.93-.57-.07,0,.15-.09-2.1-1.28-3.41-2.11-1.72-.41a1.49,1.49,0,0,1,0-.21h-.32a2.65,2.65,0,0,0-1.89-.22l-.19-.17a2.5,2.5,0,0,0-3.54,3.53c.92,1,2.05,1.68,3,2.58s1.54,2.13,2.67,3.06a13.82,13.82,0,0,1,1.59,1.33,10.87,10.87,0,0,0,1.7,1.55,29,29,0,0,0,3.85,2.16,9.06,9.06,0,0,0,1.43.57,4,4,0,0,0,1.65,1.4,14,14,0,0,0,2,.77l.21.06-.23.14,3.71,1.55.31-.11,0,0-.36.09,4.79,1.62a1.56,1.56,0,0,0,.08.42,1.78,1.78,0,0,0,.44.85,1.89,1.89,0,0,0,.32.37,2.18,2.18,0,0,0,.21.22l-.89-.06.06,1.45,2.43,8.45-1.82,1.31.09,1.38,1.78,6.87L186.86,307l.08,1.3,1.67,8.7-1.06.95.08,1.26,1.54,6.91-.94,2.67.08,1.23,1,5.05-.43,4.45.08,1.25,1.67,5.28,4.08,2.36-.26.11a2.07,2.07,0,0,0-.34.15l-.08.05a3.92,3.92,0,0,0-.32.25l.28-.12-.29.12,0,.05h0l0-.05-.1,0h0l.1,0,.19-.14a1.59,1.59,0,0,1-.34.18l-4.07-.06.08,1.53-.19.52-3.8-1.73-1.32-.58.45,4.71,3,6.34,3.89,5.42.2,0a9.11,9.11,0,0,0,.75,1.37,2.54,2.54,0,0,0,1.83,1.2,2.4,2.4,0,0,0,2.1-.69q.45-.54.84-1.11v.28l2.28-3.66,4.73-7.53.93-6.29-1.32.58-3.88,2.1-.06-.9,0-1.68-.89-.28,1.27-5.69.18-2.83-1.31-3.7,1.72-2.82.19-3-1.91-4.4,2.31-1.86.21-3.28-.93-3.66,1.32-2.56.21-3.37-1.7-4,2.08-2.07.23-3.58L200.76,297l2.68-1.14.24-3.81-4.43-6.47c1.1-.16,2.19-.36,3.26-.59a2.54,2.54,0,0,0,1.82-2.1l4.73-1.6,2-.8-.08,0c.46-.18.91-.38,1.35-.57q1-.44,2.07-.9a9.18,9.18,0,0,0,3.63-2.33l0-.05a2.06,2.06,0,0,0,.26,0l.6-.26a2.47,2.47,0,0,0,.86-.84,7.38,7.38,0,0,0,1.82-1.23l.79-.7a2.71,2.71,0,0,1,.37-.21,2,2,0,0,0,.62-.36,1.83,1.83,0,0,0,.64-.71,1.71,1.71,0,0,0,.3-.93,1.64,1.64,0,0,0,0-.73l.35-.15a2.53,2.53,0,0,0,.89-.89l0-.06a13.4,13.4,0,0,1,1.33-1.28,1.85,1.85,0,0,0,.52-.81l.2-.12.11-.06h0l.19-.14a3.24,3.24,0,0,0,.62-.12,2.68,2.68,0,0,1,.52-.18,2.87,2.87,0,0,0,1.5-1.15,2,2,0,0,0,.3-.93A2,2,0,0,0,230.86,263.67Z" transform="translate(-152.54 -25)"/></g><g id="Layer_1" data-name="Layer 1"><path class="cls-3" d="M189,340.75l.52,8.18a22.81,22.81,0,0,0,6.94.46,46,46,0,0,1-4.09-4.23A49.08,49.08,0,0,1,189,340.75Zm12.07-7.3a39.14,39.14,0,0,1-8.7-7.75,49.9,49.9,0,0,1-4.73-6.51l.6,9.58a37,37,0,0,0,2.94,3.94,25.2,25.2,0,0,0,9.48,7.26Zm-1,15.32.38-6a40.24,40.24,0,0,1-8.11-7.37,51.31,51.31,0,0,1-4.05-5.43l.6,9.5c.7,1,1.45,2,2.26,2.94a27.33,27.33,0,0,0,7.92,6.56C199.42,348.93,199.76,348.86,200.09,348.77ZM182.26,261.9c0,.12,0,.25,0,.38v-.39c.07-8.14.1-53.12.1-59.48,0-63-3-101.39-5.79-125.4V76.9l.05-.1C181,67.08,186,57,191.07,42.2l.75-2.2,0,2.32c.73,58,1.46,121.12,2.19,179.1-.8,18.81-2.27,30.91-3.89,38.74-1.2,5.84-2.5,9.29-3.65,11.35a49.76,49.76,0,0,1-12.85-4c-1.23-.57-2.43-1.18-3.6-1.85,1.06.86,2.13,1.65,3.22,2.4a42,42,0,0,0,11.55,5.64l.21.07a34.27,34.27,0,0,0,9.78,1.45c7.48,0,14.79-2.54,21.53-7.16,1.09-.75,2.16-1.54,3.22-2.4-1.17.67-2.37,1.28-3.6,1.85a49.76,49.76,0,0,1-12.85,4c-1.15-2.06-2.44-5.51-3.65-11.35-1.62-7.83-3.09-19.93-3.89-38.74.73-58,1.46-121.12,2.19-179.1l0-2.32.75,2.2C203.55,57,208.6,67.08,213,76.8l0,.1V77c-2.77,24-5.79,62.36-5.79,125.4,0,6.36,0,51.34.1,59.48v.39c0-.13,0-.26,0-.38,1.56-65,8.09-151.43,11.57-172.62,1.21-7.29,2.06-11.65,2.19-12.4l-.2-.3-.78-1.19c-.67-1-1.62-2.52-2.78-4.36-2.31-3.68-5.41-8.78-8.6-14.43-5.87-10.43-12-22.72-13.93-31.6v0c-1.92,8.88-8.06,21.17-13.93,31.6-3.19,5.65-6.29,10.75-8.6,14.43-1.16,1.84-2.11,3.33-2.78,4.36-.33.52-.6.92-.78,1.19s-.15.23-.2.3c.13.75,1,5.11,2.19,12.4C174.17,110.47,180.7,196.88,182.26,261.9Zm20.81,39.79.37-5.86a35.27,35.27,0,0,1-11.08-9.05c-.87-1-1.68-2-2.44-3.09a39.45,39.45,0,0,1-4.59-.81l.11,1.7a35.16,35.16,0,0,0,5.73,9.2C195.15,298.43,199.56,301.21,203.07,301.69Zm-11.9,1.82c3.75,4.38,7.89,7.11,11.29,7.81l.38-6.05a36.35,36.35,0,0,1-10.48-8.76,47.85,47.85,0,0,1-6.82-10.38l.61,9.76A35.92,35.92,0,0,0,191.17,303.51Zm10.48,20.57a38.31,38.31,0,0,1-9.29-8.11,50,50,0,0,1-5.42-7.69l.61,9.65a36.29,36.29,0,0,0,3.62,5c3.32,3.88,6.94,6.45,10.08,7.48Zm.6-9.39a37.2,37.2,0,0,1-9.89-8.45,49.09,49.09,0,0,1-6.12-9l.62,9.71a35.87,35.87,0,0,0,4.31,6.26c3.53,4.13,7.41,6.78,10.69,7.67Zm1.94,36.57c-.43.93-.85,1.83-1.29,2.7a66.28,66.28,0,0,1-4.1,7.12,45.08,45.08,0,0,1-4,5.17c-3.47-3.8-7.23-9.65-10.52-17.58a23.62,23.62,0,0,1-4.07-2.4A157.4,157.4,0,0,0,194.8,375a158,158,0,0,0,14.58-28.73,23.62,23.62,0,0,1-4.07,2.4C204.94,349.56,204.57,350.42,204.19,351.26Zm22.52-90.5c-1.21,1-2.45,1.94-3.75,2.81h7a55.45,55.45,0,0,1-18.13,16.34c-.92.49-1.83.94-2.76,1.35l.38-.12a50.48,50.48,0,0,0,27.61-20.78A37.72,37.72,0,0,1,226.71,260.76Zm-48.93,19.15a55.36,55.36,0,0,1-18.14-16.34h7c-1.3-.87-2.54-1.82-3.75-2.81a37.75,37.75,0,0,1-10.34-.4,50.5,50.5,0,0,0,27.62,20.78l.37.12C179.61,280.85,178.69,280.4,177.78,279.91ZM199.69,352a13.89,13.89,0,0,0,3-1.71,15.09,15.09,0,0,0,1.26-1c-.77.31-1.55.56-2.34.79a25.57,25.57,0,0,1-3.56.74,24.93,24.93,0,0,1-12.49-1.53A13.15,13.15,0,0,0,199.69,352Zm-4.89-68q-2,0-3.84-.18l.21.26c4.21,4.92,8.91,7.75,12.51,8l.58-9.14A40.86,40.86,0,0,1,194.8,284Z" transform="translate(-152.54 -25)"/></g></svg>